<?xml version="1.0" standalone="no"?>
<!DOCTYPE svg PUBLIC "-//W3C//DTD SVG 1.1//EN" "http://www.w3.org/Graphics/SVG/1.1/DTD/svg11.dtd" >
<svg xmlns="http://www.w3.org/2000/svg">
<metadata></metadata>
<defs>
<font id="egoth17regular" horiz-adv-x="1310" >
<font-face units-per-em="2048" ascent="1638" descent="-410" />
<missing-glyph horiz-adv-x="500" />
<glyph unicode="&#x2019;&#x2019;" horiz-adv-x="718" d="M12 1106q0 4 99 135l96 129v66v65l4 6l6 4h84h84l6 -4l4 -6v-69v-72l-6 -6q-6 -6 -121.5 -129t-124.5 -131q-4 -4 -63 -4h-57l-7 4q-4 8 -4 12zM324 1106q0 4 98 135l96 129v66v65l4 6l6 4h84h84l6 -4l5 -6v-69v-72l-7 -6q-6 -6 -121.5 -129t-123.5 -131q-4 -4 -64 -4 h-57l-6 4q-4 8 -4 12z" />
<glyph unicode="&#x2018;&#x2018;" horiz-adv-x="718" d="M12 1360v72v69l4 6l7 4h83h84l7 -4l4 -6v-65v-66l67 -125q47 -82 72 -131q6 -12 -2 -20q-4 -4 -64 -4q-57 0 -61 4t-102 135zM324 1432v69l4 6l6 4h84h84l6 -4l4 -6v-65v-66l68 -125q47 -82 71 -131q6 -12 -2 -20q-4 -4 -61 -4q-59 0 -62 2q-2 0 -99 129t-101 137 q-2 2 -2 74z" />
<glyph unicode="&#x2d;&#x2d;" horiz-adv-x="1136" d="M74 444q-10 10 12 45q47 70 135 99q10 2 391 4q367 0 392 4q31 12 49 25q27 20 43 22l8 2l4 -4q16 -16 -64 -66q-16 -8 -28 -20q-2 -2 -7 -5t-9.5 -6t-8.5 -5l-16 -9h-391q-397 0 -402 -2q-10 0 -16 -6l-4 -4l6 2q18 12 27 4q6 -8 -13 -26q-43 -47 -92 -56q-12 -2 -16 2z " />
<glyph unicode="&#x7b;&#x2d;" horiz-adv-x="2256" d="M74 444q-8 8 2 29q14 33 57 66.5t88 48.5q20 4 950 4q928 0 953 4q31 12 49 25q27 20 43 22l8 2l4 -4q16 -16 -63 -66q-16 -8 -29 -20q-2 -2 -7 -5t-9 -6t-9 -5l-16 -9h-952q-956 0 -961 -2q-10 0 -16 -6l-4 -4l6 2q18 12 27 4q6 -8 -13 -26q-43 -47 -92 -56 q-12 -2 -16 2z" />
<glyph unicode="st" horiz-adv-x="1411" d="M47 963q6 25 82 71l31 21l8 6l4 29q23 115 66 221q41 90 90 149q47 57 122.5 111.5t143.5 81.5q47 20 115 26q4 2 34 2q219 4 338 -159q47 -66 61.5 -144t-9.5 -143q-20 -55 -70 -105l-12 -14l20 -4q123 -27 178 -27q49 0 88 19q41 23 45 14q2 -8 -31.5 -37.5 t-78.5 -56.5q-84 -51 -170 -51q-61 0 -168 24q-31 6 -37 0q-2 -2 -16 -20q-113 -137 -127 -311q-8 -70 2 -170q14 -137 59 -230q27 -57 33 -57q8 4 14 10q31 25 68 44.5t43 15.5q2 -4 -2 -9q0 -2 -1 -6t-1 -6q2 -10 59 -57q55 -41 64 -60q8 -10 -2 -28q-14 -20 -58.5 -53 t-77.5 -48q-33 -12 -80 -12q-33 4 -40 4q-109 25 -170 150q-45 84 -64 235q-10 104 -2 174q25 256 238 434l18 17h-8q-55 8 -113 4q-88 -6 -153 -45q-43 -25 -50 -19q-4 4 11.5 21.5t44 39t63.5 42.5q98 57 203 71q14 2 62.5 3.5t54.5 -1t10 8.5q27 74 4 155 q-41 158 -192 234q-141 63 -279 31q-33 -8 -47 -25q-131 -156 -168 -565q-18 -201 -18 -588q0 -215 2 -223q8 -33 32 -47l9 -5l14 9q29 10 31 6q4 -4 -15.5 -23.5t-52.5 -44.5q-102 -74 -135 -55q-31 14 -39 55q-2 8 -2 269q-2 270 -4 292q-18 176 -64 314z" />
<glyph horiz-adv-x="2048" />
<glyph horiz-adv-x="2048" />
<glyph unicode="&#xd;" horiz-adv-x="681" />
<glyph unicode="!" horiz-adv-x="382" d="M98 78q0 6 43 51q43 43 52 43q6 0 49 -43q43 -45 43 -51q0 -8 -43 -51t-49.5 -43t-51.5 43q-43 45 -43 51zM115 918v661l14 16q60 59 123 82q8 4 14 4q4 0 4 -655q0 -659 -2 -664q-2 -14 -42 -45.5t-76 -50.5q-20 -10 -27 -10h-6z" />
<glyph unicode="&#x26;" horiz-adv-x="1644" d="M29 514q-4 223 24 420q45 299 187 438q129 123 260 156q80 23 162 8q119 -20 206 -115q147 -162 158 -426v-34l12 -13q72 -84 129 -200l13 -25q4 4 100 197q168 352 180 616v33h-92l-92 2l-2 4q0 4 20 24q58 58 115 78q10 4 109 4h98l-2 -34q0 -199 -103 -453 q-55 -141 -213 -442q-43 -84 -53 -105l-18 -35l18 -43q53 -131 96 -204q115 -203 271 -242q37 -10 69 -10q18 0 9 -13q-10 -18 -58.5 -53t-75.5 -43q-47 -18 -139 21q-57 23 -114 77q-94 94 -175 267l-14 32l-14 -22q-100 -162 -256 -270q-121 -84 -230 -105q-59 -8 -133 0 q-184 27 -311 158q-94 96 -125 223q-14 51 -16 129zM188 545q12 -76 45 -146q61 -127 182.5 -203.5t268.5 -82.5q74 -2 133 20q14 6 33 25q88 92 192 297l29 55l-12 31q-37 82 -78 157q-145 258 -350 303q-23 4 -72 5q-47 4 -55 0q-88 -8 -156 -43q-18 -8 -35 -27 q-98 -96 -125 -254q-8 -68 0 -137zM193 885l18 16q172 156 346 201q68 16 141 16q55 0 80 -4q6 -2 14.5 -4t16.5 -4t10 -2l15 -6q0 2 -21 57q-98 233 -299 268q-78 12 -147 -6l-21 -4l-14 -18q-61 -84 -99 -228q-25 -94 -38 -268z" />
<glyph unicode="," horiz-adv-x="407" d="M12 -311.5q0 4.5 99 135.5l96 129v65v66l4 6l6 4h84h84l6 -4l4 -6v-70v-71l-6 -6q-6 -6 -121.5 -129t-124.5 -132q-4 -4 -63 -4h-57l-7 4q-4 8 -4 12.5z" />
<glyph unicode="-" horiz-adv-x="913" d="M74 444q-6 10 0 25q14 29 50 61.5t73 47.5q23 10 49 11t254 3l268 2l14 4q23 8 52 27l32 16q14 4 21 0q2 -4 0 -10q-10 -23 -66 -56l-30 -20q-4 -4 -23 -16l-12 -7l-291 -2h-291l-4 -6l-4 -4l8 2q23 10 23 -6q0 -14 -35 -37q-41 -31 -72 -37q-12 -2 -16 2z" />
<glyph unicode="." horiz-adv-x="235" d="M25 78q0 6 43 51q43 43 51 43q6 0 49 -43q43 -45 43 -51q0 -8 -43 -51t-49 -43t-51 43q-43 45 -43 51z" />
<glyph unicode="0" d="M95.5 668.5q0.5 160.5 21.5 267.5q35 201 162 319q78 68 176 121q53 25 86 33q74 19 137 23q86 8 160 -7q158 -23 245.5 -124t116.5 -291q16 -117 15 -278t-21 -267q-25 -137 -82 -225t-170 -164q-63 -41 -125 -68q-94 -39 -215 -41q-219 -6 -338 96.5t-153 327.5 q-16 117 -15.5 277.5zM250 752.5q0 -93.5 4 -127.5q18 -248 92 -369q113 -182 406 -176q80 2 145 20q39 12 51 29q76 96 99 287q29 209 4 428q-23 236 -120 347.5t-292 127.5q-139 10 -242 -25q-23 -6 -49 -43q-76 -119 -94 -370q-4 -35 -4 -128.5z" />
<glyph unicode="1" d="M502 1292q-4 8 21.5 32t76.5 58q14 10 51 35q47 35 72 39h8q2 0 2 -639q0 -641 4 -649q8 -14 21 -18q4 0 20 6q4 2 12.5 6t10.5 4q8 0 8 -4q0 -23 -100 -88q-31 -20 -41 -29q-70 -49 -88 -45q-2 2 -2 641v641l-5 8q-6 8 -14 15l-10 4l-14 -6q-29 -14 -33 -11z" />
<glyph unicode="2" d="M96 -29q0 14 49 52q33 27 199 135q203 133 307 209q264 199 342 424q35 98 35 208.5t-35 180.5q-39 76 -131 108.5t-272 32.5q-221 0 -412 -82q-47 -20 -49 -14q-4 6 21.5 30.5t60.5 44.5q90 63 274 105q76 19 172 27q125 8 234 -7q119 -12 186 -55q51 -39 72 -84 q43 -86 33 -223q-14 -227 -182.5 -428t-591.5 -475l-50 -33h2q2 0 6.5 1t8.5 1q12 2 74 2q63 0 139 -8q72 -6 143 -10q76 -4 143 -11q129 -14 185 -8q59 6 96 27q33 20 51 24q12 2 11 -6q-6 -18 -58 -53q-98 -76 -196 -96q-78 -16 -238 0q-68 6 -143.5 10t-143.5 10 q-131 14 -186 8q-59 -6 -96 -26q-16 -8 -29 -17q-31 -14 -31 -4z" />
<glyph unicode="3" d="M96 39q4 18 61.5 59t82.5 45q8 2 51 -8q186 -49 401 -55q84 0 144 8q113 18 149 51q53 53 70 140q10 57 0 110q-25 113 -142 168q-145 70 -512 70q-90 0 -90 6l2 6q14 23 49 45q37 29 72 45l21 10l41 2q96 6 172 27q80 25 127 53q23 14 57 56q109 131 109 292 q0 88 -70 121q-49 25 -162 31q-180 10 -309 -6q-100 -12 -189 -43q-37 -10 -106 -41q-25 -12 -29 -6t21.5 30.5t60.5 44.5q98 68 279 109q100 23 219 25q225 6 299 -11q121 -23 137 -108q12 -57 -6 -137q-27 -119 -107 -217q-98 -119 -245 -205l-33 -21l39 -2 q209 -14 318.5 -71.5t131.5 -165.5q10 -55 0 -115q-12 -72 -57 -131q-37 -53 -109 -109q-164 -129 -327 -159q-68 -14 -154 -13q-211 0 -413 51q-53 14 -54 19z" />
<glyph unicode="4" d="M98 373q-6 2 2 14q4 8 484.5 498.5t496.5 505.5q23 20 60 41.5t51 23.5h6q2 0 2 -452v-455l6 2q8 0 8 -2q6 -6 -10 -19q-4 -4 -4 -215v-211l-6 -8q-14 -18 -58 -51t-71 -41l-16 -4q-4 2 -5 211v211l-6 -2q-14 -10 -63 -23q-92 -18 -258 0q-47 4 -129 9q-78 2 -168 12 q-53 6 -119 6q-96 2 -151 -31q-47 -23 -52 -20zM289 512l16 6q84 31 266 12q88 -10 164 -12q82 -4 131 -8q160 -18 176 -10q2 0 2 393v393l-360 -368q-84 -86 -179 -183.5t-145.5 -148.5t-54.5 -56z" />
<glyph unicode="5" d="M94 969q0 291 4 297q6 16 54 49q98 76 196 96q78 16 240 0q68 -6 143.5 -10t142.5 -10q129 -14 185 -9q57 6 96 25q33 21 43 25q2 0 6 1t6 1q23 0 -24 -41q-12 -8 -27 -19q-98 -76 -196 -96q-78 -16 -238 0q-68 6 -143.5 10t-143.5 10q-137 14 -174 11l-14 -2v-252v-252 l18 10q123 72 236 96q82 20 178 21q100 0 180 -23q143 -43 236.5 -141t111.5 -227q16 -111 -22.5 -196t-140.5 -169q-160 -125 -328 -160q-57 -12 -152 -12q-168 0 -338 33q-111 20 -133 33q-2 4 2 10q12 20 65.5 58t76.5 42q12 0 53 -10q150 -39 317 -51q41 -2 107.5 -2 t91.5 2q86 12 154 41q25 12 51 51q45 70 45 164q0 123 -65.5 225t-184.5 160q-96 43 -195 57q-25 4 -78 4t-75 -4q-162 -20 -285 -98q-53 -37 -74 -37h-6z" />
<glyph unicode="6" d="M109 424q-33 223 0 448q27 195 122 306q78 88 207 157q95 52 230 64q57 4 186 -2q25 -2 84 -9.5t70 -7.5q193 -33 206 -47q2 -4 -2 -10q-12 -20 -65 -58t-76 -42q-12 0 -53 10q-188 49 -402 55q-131 2 -219 -26q-20 -6 -32 -17q-41 -49 -66 -125q-49 -135 -49 -377v-34 l4 6q18 25 88 72t145 85q90 45 168 64q201 49 344 -39q80 -51 129 -135q27 -39 48 -103q33 -96 38 -206q8 -115 -43 -191q-29 -43 -96 -98q-172 -129 -375 -156q-139 -20 -256 4q-145 29 -227 129.5t-108 282.5zM252 662q6 -143 35 -244q41 -137 119 -205q109 -94 303 -100 q174 -4 292 45q12 6 23 18q29 45 35 100q4 57 -6 134q-31 264 -203 374q-78 48 -164 56q-45 4 -84 0q-98 -10 -188 -54q-41 -18 -82 -47q-57 -37 -72 -39h-8v-38z" />
<glyph unicode="7" d="M94 1262q6 18 58 53q98 76 196 96q78 16 240 0q68 -6 143.5 -10t142.5 -10q129 -14 185 -9q57 6 96 25q33 21 43 25q16 4 19 -2q-10 -18 -25 -39q-377 -567 -455 -1246q-4 -45 -24 -65q-33 -31 -80 -58.5t-53 -19.5q-2 0 -2 4t1 13.5t3 23.5q59 522 307 997 q57 111 145 250l8 13l-14 -7q-63 -23 -122.5 -26.5t-180.5 8.5q-68 6 -143.5 10t-143.5 10q-131 14 -186 9q-59 -6 -96 -27q-33 -20 -52 -25q-12 -2 -10 7z" />
<glyph unicode="8" d="M93 284.5q16 88.5 63 159.5q70 109 231 218q61 41 102 61l17 10q-16 6 -39 15q-178 61 -264 141q-76 74 -97 176q-4 18 -4 49q2 43 17 70q20 43 90 100q90 70 172 100q110 42 276 48l23 2h43q289 0 403 -78q53 -35 72 -80q20 -55 2 -123q-14 -53 -39 -96 q-84 -137 -301 -244l-43 -22l21 -9q258 -109 346 -282q63 -129 33 -242q-10 -33 -33 -68q-27 -39 -91.5 -87t-125.5 -76q-121 -53 -353 -60q-279 -2 -399 53q-86 39 -115 115q-23 61 -7 149.5zM244 326q0 -51 12 -84q51 -129 305 -154q203 -20 359 2q78 10 110 21l14 4l7 16 q33 70 8 172q-33 143 -158 244q-111 85 -285 151l-32 11q-6 0 -78 -29q-111 -45 -152 -86q-111 -111 -110 -268zM262 1171q8 -43 31 -84q49 -104 190 -174q61 -29 170 -65l74 -25l66 21q160 55 180 76q33 29 59 90q35 94 10 159q-55 134 -374 150q-88 4 -176 0 q-123 -6 -203 -31q-14 -4 -21 -14q-18 -47 -6 -103z" />
<glyph unicode="9" d="M96 68q-2 4 2 10q12 20 65.5 58t76.5 42q12 0 53 -10q188 -49 401 -55q131 -2 219 26q20 6 33 17q41 49 66 125q33 86 41 206q8 78 8 179v26l-8 -8q-14 -20 -71.5 -60t-115.5 -69q-178 -86 -352 -53q-156 27 -274 143q-61 63 -95 133q-39 80 -49 185q-10 129 86 225 q72 72 168 123q132 74 312 88q68 4 159 -2q125 -18 199 -70q145 -98 182 -350q33 -225 0 -449q-27 -195 -123 -305q-78 -88 -207 -157q-88 -45 -184 -58q-143 -23 -383 12q-195 33 -209 48zM252 1071q12 -186 141 -315q133 -133 328 -150q156 -14 262 60q51 31 68 34h8v39 q-6 143 -35 244q-41 137 -119 205q-86 76 -233 96q-92 6 -156 2q-129 -10 -207 -43q-12 -6 -22 -18q-41 -59 -35 -154z" />
<glyph unicode=":" horiz-adv-x="235" d="M25 281q0 6 43 51q43 43 51 43q6 0 49 -43q43 -45 43 -51q0 -8 -43 -51.5t-51 -43.5q-6 0 -49 43t-43 52zM25 840q0 8 43 51t51 43q6 0 49 -43t43 -51q0 -6 -43 -52q-43 -43 -51 -43q-6 0 -49 43q-43 45 -43 52z" />
<glyph unicode=";" horiz-adv-x="407" d="M12 -311.5q0 4.5 99 135.5l96 129v65v66l4 6l6 4h84h84l6 -4l4 -6v-70v-71l-6 -6q-6 -6 -121.5 -129t-124.5 -132q-4 -4 -63 -4h-57l-7 4q-4 8 -4 12.5zM207 840q0 6 43 51q45 43 51 43t51 -43q43 -45 43 -51t-41 -49q-10 -10 -21 -20.5t-18 -16.5l-8 -6q-6 -2 -12 0 l-8 6q-6 6 -17.5 16t-21.5 21q-41 43 -41 49z" />
<glyph unicode="?" horiz-adv-x="897" d="M31 1206v35q0 41 4 57q18 88 82 166q43 53 118.5 107.5t143.5 81.5q63 24 110 26q14 2 46 0t47 -4q172 -39 247 -258q37 -111 37 -235q0 -55 -4 -78q-18 -102 -92 -225q-16 -31 -76 -117q-119 -180 -145 -264q-23 -72 -23 -125q0 -14 -8 -23q-20 -25 -70.5 -58.5 t-70.5 -35.5q-6 0 -6 10q-4 51 22 133q35 98 152 273q61 94 78 119q66 113 84 210q4 23 4 76q0 127 -37 234q-70 199 -213 243q-43 14 -90 13q-49 0 -88 -13q-25 -8 -45 -38q-51 -76 -54 -170v-37l-8 -9q-16 -23 -68.5 -57.5t-70.5 -36.5h-6zM354 78q0 6 43 51 q45 43 51.5 43t51.5 -43q43 -45 43 -51t-43 -51q-45 -43 -51.5 -43t-51.5 43q-43 45 -43 51z" />
<glyph unicode="A" horiz-adv-x="1892" d="M41 10q137 346 303 766l303 768l-8 12l-8 13h-31q-33 0 -33 6q-2 10 50 50t85 52q10 4 46 4h34l502 -784l504 -784h31q32 0 32 -4q1 -11 -31 -38q-36 -30 -77 -53q-33 -18 -74 -18q-33 0 -37 4q0 2 -61.5 96.5t-183 284.5t-232.5 365l-475 741q-121 -303 -266 -672 l-267 -669v-23q0 -23 7 -35q2 -8 14 -20q14 -18 43 -23q33 -4 0 -33q-12 -12 -24.5 -14t-71.5 -2q-68 0 -70 4q-4 4 -4 6z" />
<glyph unicode="B" horiz-adv-x="1892" d="M41 4q-4 12 49 51l12 11v751v752h-30q-29 0 -31 2q-4 10 39 45t84 55l18 10h97q137 2 370 19q305 18 371 20q35 2 109.5 2t101.5 -2q154 -10 244 -34q242 -70 288 -287q8 -43 11 -94v-17q0 -187 -125 -305q-25 -25 -86 -70l-27 -18l23 -8q231 -66 278 -264 q12 -51 12 -123q0 -78 -12 -127q-35 -150 -184 -262q-104 -78 -210 -114t-261 -46q-35 -4 -121 -4t-135 4q-113 4 -240 16q-408 31 -549 33q-92 0 -96 4zM258 113h61q147 -4 517 -33q221 -18 374 -19q231 0 355 43q39 12 55 31q18 20 37 58q23 53 35 124q4 41 4 79.5 t-4 74.5q-16 92 -58 156q-84 127 -297 166q-25 4 -26 4q-4 0 -37 -9q-122 -25 -318 -25q-44 0 -92 1q-131 4 -268 10q-121 6 -272 10l-66 2v-337v-336zM258 791l4 6q29 45 119 90l18 8l66 2q143 4 266 12q303 16 416 19q172 0 274 -13l37 -4l25 7l41 16q18 6 32 24 q62 81 62 224v18q-2 51 -10 92q-25 121 -109 193q-133 109 -418 123q-27 2 -100.5 2t-108.5 -2q-66 -2 -370 -21q-117 -10 -209 -14h-35v-391v-391z" />
<glyph unicode="C" horiz-adv-x="1892" d="M59 621q-20 90 -20 176q0 238 154 448q133 184 382 322q185 98 396 112q22 2 52 2t67 -2q375 -25 659 -266q102 -90 102 -100q0 -12 -42 -46t-78 -50q-23 -10 -29 -8.5t-39 32.5q-121 121 -283 207q-186 92 -381 113q-64 8 -125 8q-186 0 -339 -72q-82 -37 -148 -108 q-121 -131 -167 -307q-24 -93 -24 -188q0 -84 19 -167q53 -238 241.5 -404.5t444.5 -201.5q62 -9 121 -8q100 0 192 24q156 41 318 142q43 25 209 137q87 62 105 62q5 0 5 -4q0 -7 -2 -9q-12 -18 -51 -47q-53 -39 -203 -142q-408 -268 -702 -276h-26q-281 0 -507 169 q-236 177 -301 452z" />
<glyph unicode="D" horiz-adv-x="1892" d="M41 2q-4 14 49 53l12 11v751v752h-30q-29 0 -31 2q-4 12 50 54t91 54q6 2 129 2q168 -2 348 -14q494 -37 791 -180q104 -53 168 -107q53 -41 108 -108q125 -163 125 -378v-20q-2 -63 -12 -106q-33 -190 -186 -338q-41 -41 -105 -90q-260 -195 -637 -270 q-303 -63 -747 -70q-121 0 -123 2zM258 113h86q723 12 1079 188q70 33 115 80q41 41 72 90q66 102 82 240q4 38 4 76q0 88 -23 171q-27 111 -102 207q-41 53 -103 103q-63 53 -168 106q-337 164 -970 191q-27 2 -60 2h-12v-727v-727z" />
<glyph unicode="E" horiz-adv-x="1193" d="M41 2q-4 14 49 53l12 11v751v752h-30q-29 0 -31 2q-4 12 51 54t90 54q6 2 487.5 2t483.5 -2q4 -12 -49 -53t-88 -53q-10 -4 -385 -4h-373v-238v-237h447q446 0 448 -2q2 -8 -23 -33q-66 -57 -112 -74q-10 -4 -385 -4h-375v-434v-434h447q449 0 448 -7q0 2 -4 -6 q-10 -18 -58.5 -53t-74.5 -43q-10 -4 -491.5 -4t-483.5 2z" />
<glyph unicode="F" horiz-adv-x="1247" d="M41 1683q-4 12 51 54.5t90 54.5q6 2 514 2t510 -2q4 -12 -49 -53t-88 -53q-10 -4 -412 -5h-399v-258v-260h473q471 0 475 -4q2 -10 -40 -44t-81 -52l-20 -10l-403 -2h-404v-476v-473l-14 -16q-27 -26 -77 -58q-44 -28 -58 -28h-3q-4 2 -4 842v839h-30q-29 0 -31 2z" />
<glyph unicode="G" horiz-adv-x="1892" d="M41 789q0 55 4 79q20 199 133 365q106 158 297 283q222 145 453 163q24 2 56 2q47 0 110 -4q336 -37 585 -254q53 -41 99 -96l12 -14l-4 -8q-14 -20 -59.5 -53t-73.5 -44l-15 -4l-18 19q-256 285 -633 336q-57 8 -143 8q-84 0 -148 -13q-162 -29 -247 -100 q-43 -33 -89 -88q-135 -172 -159 -395q-4 -25 -4 -78t4 -76q20 -197 129 -356q150 -223 403 -305q43 -14 105 -29q74 -14 154 -14q84 0 174 16q175 31 309 109q78 47 141 116l18 21v205v204h-30q-31 0 -33 2q-4 8 26 35q47 41 101 68l16 8h37h39v-395q0 -393 -4 -400 q-8 -20 -65.5 -59t-78.5 -41h-6l-2 156v155l-16 -14q-274 -219 -559 -276q-112 -22 -216 -22q-80 0 -155 13q-182 35 -326 144q-41 29 -94 80q-193 195 -223 473q-4 23 -4 78z" />
<glyph unicode="H" horiz-adv-x="1892" d="M41 1571q-4 12 51 54t90 54h7.5t14.5 1t19 1h35v-344v-342h688h688v287v287h-30q-31 0 -33 2q-4 8 26 35q47 41 101 67l16 8h37h39v-784v-784h31q30 0 30 -4q1 -11 -31 -39q-36 -31 -77 -54q-29 -16 -74 -16l-33 2l-2 440v441h-688h-688v-385v-385h31q31 0 33 -2 q4 -8 -27 -35q-47 -41 -100 -68l-15 -6h-39h-37l-2 782v785h-30q-29 0 -31 2z" />
<glyph unicode="I" horiz-adv-x="550" d="M41 2q-4 14 58.5 60.5t90.5 50.5h9v729v727h-78q-78 0 -80 2q-4 12 51 54t90 54q6 2 166 2t162 -2q4 -14 -54.5 -57t-90.5 -51l-11 -2v-729v-727h78q76 0 78 -2q4 -10 -32 -40t-77 -53q-25 -14 -43 -16t-155 -2q-160 0 -162 2z" />
<glyph unicode="J" horiz-adv-x="737" d="M43 2q-2 1 -2 3q0 6 13 19q18 19 51.5 43.5t72.5 47.5q74 41 207 90q16 6 38.5 15t38 15.5t21.5 8.5l23 12l10 12q12 20 23 68q2 12 2 625v608h-31q-31 0 -31 6q-2 10 50 50t85 52q10 4 48 4h34v-622v-621l-6 -18q-14 -59 -67 -117q-80 -76 -195 -135q-41 -23 -154 -64 q-127 -49 -157 -69q-52 -36 -68 -36q-4 0 -6 3z" />
<glyph unicode="K" horiz-adv-x="2152" d="M41 4q0 2 4 8q8 18 45 43l12 11v751v752h-30q-29 0 -31 2q-4 12 51 54t90 54h7.5t14.5 1t19 1h35v-407l2 -408l418 371q424 375 434 383q39 31 78 51l20 10h37q39 0 39 -4q0 -2 -4 -8q-10 -18 -56 -52t-75 -44q-16 -4 -27 -4h-12l-381 -336q-383 -338 -385 -342l-4 -4 l16 -23q127 -178 312 -317q535 -416 1378 -434q59 0 63 -4q4 -8 -32.5 -39t-75.5 -54q-33 -16 -105 -16q-461 10 -840.5 144.5t-645.5 381.5q-51 43 -129 131l-25 29v-287v-286h31q31 0 33 -2q4 -8 -27 -35q-47 -41 -100 -68l-15 -6l-69 -2q-70 0 -70 4z" />
<glyph unicode="L" horiz-adv-x="1247" d="M41 1683q-4 12 51 54.5t90 54.5q2 0 7.5 1t14.5 1h19h35v-842v-839h473q473 0 475 -2q4 -10 -31.5 -41t-76.5 -54q-27 -14 -69 -15t-449 -1l-476 2l-2 840v839h-30q-29 0 -31 2z" />
<glyph unicode="M" horiz-adv-x="2539" d="M41 1573l4 8q8 18 45 43q12 10 12 18q4 19 31 33q12 6 19.5 6t9.5 -6l2 -4l10 4q12 6 45 6h37l6 -8q29 -33 514 -737q340 -489 545 -789l22 -30q2 0 416 724t414 726t-8 2q-23 0 12 30q10 12 21 19q2 2 18 22q8 18 18 25q20 17 32 17q7 0 11 -5q4 -4 17 0q10 4 45 4h35 v-120q8 -731 53 -1313q4 -94 8 -117v-18h31q31 0 33 -2q4 -10 -32 -40t-77 -53q-33 -18 -74 -18q-33 0 -35 4v8q-2 8 -2 15q-4 18 -8 114q-45 586 -53 1307v108l-438 -763q-438 -768 -445 -775q-18 -18 -35 -18q-14 0 -14 10l17 33l16 29q-4 0 -14 -11q-51 -41 -97 -59 q-12 -2 -14 0l-10 14q-10 16 -30.5 45t-39.5 54q-391 571 -831 1200q-23 33 -58 82l-67 94v-2l-2 -35q0 -33 -3 -97.5t-6.5 -143t-6.5 -185t-7 -209.5q-24 -648 -24 -677q0 -49 55 -79q29 -14 51 -14q4 0 8 -4q10 -10 -12 -29q-12 -12 -24.5 -14t-71.5 -2q-68 0 -70 4v12 q0 83 25 746q6 156 14 368.5t12 309t4 102.5v27h-28q-31 0 -31 4z" />
<glyph unicode="N" horiz-adv-x="1892" d="M41 1573l4 8q8 18 45 43q12 10 12 18q4 19 31 33q12 6 19.5 6t9.5 -6l2 -4l10 4q12 6 45 6q37 0 39 -4q4 -4 43 -57q137 -193 279 -365q500 -606 1120 -1077l29 -22v690q0 682 -5 702q-23 66 -86 80q-16 4 -22 4q-2 0 -6 2h-4q-14 14 24 39l10 8h103q104 0 106 -2 q3 -3 3 -7q0 -8 -9 -18q-14 -16 -33 -20q-10 -6 -12 -14q-2 -6 -6 -27q-2 -10 -2 -782q0 -770 -2 -774q-4 -15 -26 -29q-14 -9 -23 -9q-5 0 -8 3l-2 4v9v12v20l-19 -10q-43 -31 -63 -35l-11 -2l-57 43q-791 596 -1376 1391l-37 49l-2 -43v-152.5v-198v-274.5q0 -662 4 -682 q23 -66 86 -80q16 -4 22 -4h7l4 -2q14 -14 -25 -39l-10 -6l-72 -2q-72 0 -74 4q-4 4 -4 784v781h-30q-31 0 -31 4z" />
<glyph unicode="O" horiz-adv-x="2281" d="M41 788.5q0 55.5 4 77.5q23 176 117 320q63 94 143 168q240 217 533 305q157 47 313 53q2 0 22.5 1t36.5 1h12q204 0 397 -64q198 -66 343 -188q242 -203 274 -491q4 -23 4 -77q0 -5 1 -10q0 -47 -5 -67q-23 -178 -116 -321q-63 -94 -144 -168q-272 -246 -596 -322 q-143 -37 -286 -39h-25q-204 1 -397 63q-205 66 -353 189q-242 205 -274 494q-4 20 -4 75.5zM197 893q0 -53 4 -74q20 -180 118 -321q113 -166 314 -274.5t446 -135.5q75 -8 148 -8q273 0 508 115q96 47 166 124q152 164 180 396q4 23 4 75t-4 74q-25 207 -152 367 q-129 160 -335.5 257t-454.5 111q-33 2 -67 2t-68 -2q-88 -4 -173 -20q-240 -43 -378 -149q-109 -82 -181 -220q-57 -119 -71 -241q-4 -23 -4 -76z" />
<glyph unicode="P" horiz-adv-x="1763" d="M41 1571q-4 10 39 45t84 55l18 10h105q158 2 415 15q132 8 220 8q35 1 68 1q270 0 419 -44q233 -66 293 -256q18 -59 20 -129v-16q0 -162 -80 -267q-45 -66 -157 -143q-106 -70 -224 -102.5t-294 -40.5q-56 -2 -120.5 -2t-139.5 2q-27 0 -53.5 2t-91 4t-140.5 6 q-109 4 -125 6h-39v-311v-312l-14 -16q-27 -26 -77 -58q-44 -28 -58 -28h-3q-4 2 -4 784v785h-30q-29 0 -31 2zM258 840h88q51 -2 313 -13q127 -6 136 -6q55 -2 165 -3h65q57 0 83 1q199 8 317 47q53 18 66 35q53 61 72 176q2 23 2 72t-2 72q-29 205 -209 292 q-144 70 -420 78q-30 1 -69 1q-135 0 -376 -11q-16 0 -47.5 -2t-55.5 -3t-38 -1q-12 0 -29.5 -1t-28.5 -2t-16 -1h-16v-365v-366z" />
<glyph unicode="Q" horiz-adv-x="2281" d="M41 788.5q0 55.5 4 77.5q23 176 117 320q63 94 143 168q240 217 533 305q157 47 313 53q2 0 22.5 1t36.5 1h12q205 0 397 -64q198 -67 343 -188q242 -203 274 -491q4 -23 4 -77q1 -5 1 -10q0 -46 -5 -67q-14 -133 -75 -250q-39 -78 -78 -123q-59 -76 -133 -139 q-33 -29 -35 -31l-6 -4l18 -26q119 -166 156 -213q147 -186 264 -221q33 -10 68 -11q47 0 71 17q44 28 58 28q4 0 6 -2q1 -1 1 -2q0 -6 -13 -20q-15 -17 -44.5 -38.5t-64.5 -41.5q-92 -53 -162 -53q-37 0 -69 10q-78 25 -175 117q-96 100 -247 319l-21 29l-10 -6 q-6 -4 -35 -19q-41 -25 -133 -67q-236 -96 -483 -103h-25q-204 0 -397 63q-205 66 -353 189q-242 205 -274 494q-4 20 -4 75.5zM197 893q0 -53 4 -74q20 -180 118 -321q113 -166 314 -274.5t446 -135.5q75 -8 148 -8q273 0 508 115q96 47 166 124q152 164 180 396q4 23 4 75 t-4 74q-25 207 -152 367q-129 160 -335.5 257t-454.5 111q-33 2 -67 2t-68 -2q-88 -4 -173 -20q-240 -43 -378 -149q-109 -82 -181 -220q-57 -119 -71 -241q-4 -23 -4 -76z" />
<glyph unicode="R" horiz-adv-x="2023" d="M41 1573l4 8q8 18 45 43q12 10 12 18q2 10 16.5 22.5t27 15.5t16.5 -5l2 -4l10 4q12 6 164 8q116 1 208 1q230 0 312 -7q287 -20 424 -112q113 -78 143 -203q12 -54 12 -105q0 -55 -14 -106q-31 -123 -174 -233q-119 -88 -250 -129t-333 -54q-94 -8 -252 -8h-37l14 -18 q72 -82 176 -168q457 -371 1200 -420q111 -8 183 -8q33 0 32 -4l-4 -9q-10 -18 -58 -53t-75 -43q-13 -5 -53 -5q-30 0 -76 3q-311 12 -586 82q-422 109 -712 344q-135 111 -234 236l-18 22l-2 -14v-60.5v-80v-115.5q2 -272 4 -283q23 -66 86 -80q16 -4 22 -4h7l4 -2 q14 -14 -25 -39l-10 -6l-72 -2q-72 0 -74 4q-4 4 -4 784v781h-30q-31 0 -31 4zM164 1169q0 -399 2 -399q6 4 14 10q33 31 76 49l20 11h170q362 0 529 24q80 10 149.5 32t85.5 38q51 57 68 162q4 27 4 55q0 50 -12 104q-27 106 -107 175q-147 119 -522 139q-53 4 -241.5 4 t-231.5 -4h-4v-400z" />
<glyph unicode="S" horiz-adv-x="1484" d="M42 1188q1 40 5 61q29 133 180 246q217 164 512 184q25 2 69 2q66 0 173 -4q233 -12 440 -49q12 -2 17.5 -4t5.5 -5t-6 -11q-16 -18 -58.5 -49t-68.5 -41q-16 -6 -62 2q-248 43 -534 49q-109 0 -180 -8q-123 -12 -232 -58q-23 -10 -37 -24q-47 -51 -63 -127 q-6 -29 -5 -62q0 -26 3 -55q41 -207 336 -291q119 -35 280 -47q238 -18 387 -84q92 -41 154 -106q63 -66 82 -154q4 -20 3 -60t-5 -61q-29 -133 -181 -246q-109 -82 -221 -124t-266 -58q-25 -4 -118 -4t-142 4q-199 10 -346 33q-119 18 -121 20q-1 2 -1 4.5t1 6.5 q14 23 49 45q68 55 98 55q14 0 46 -6q262 -43 534 -49q109 0 180 8q123 12 232 57q23 10 37 25q47 51 63 127q6 29 6 62q0 26 -4 54q-41 207 -336 291q-119 35 -280 47q-238 18 -387 84q-92 41 -154 107q-63 66 -82 153q-3 16 -3 45v15z" />
<glyph unicode="T" horiz-adv-x="1376" d="M43 1577q14 35 129 102q111 62 209 70q20 2 42 2q94 0 220 -35q2 0 48 -13t73 -22q168 -51 250 -61q50 -8 93 -7q97 0 159 38q44 30 60 30q4 0 7 -2q1 -1 1 -3q0 -8 -20 -26q-24 -24 -67 -53q-145 -96 -302 -96q-40 0 -81 6q-70 6 -94 19q-4 0 -4 -711v-711l-6 -8 q-18 -24 -76 -62q-52 -34 -69 -34h-3q-2 2 -2 786v785l-43 12q-166 47 -260 53q-24 2 -46 2q-87 0 -140 -32q-60 -35 -74 -35q-6 0 -4 6z" />
<glyph unicode="U" horiz-adv-x="2023" d="M41 1571q-4 12 51 54t90 54h15q14 2 26 2q33 0 35 -4q-2 -33 -6 -69q-53 -483 -53 -918v-31q0 -105 12 -153q35 -145 162 -248q143 -117 360 -141q20 -2 87 -2t98 2q242 20 450 100q190 70 361 176l36 23v577v576h-30q-31 0 -33 2q-4 8 27 35q47 41 100 67l16 8h37h39 v-784v-784h31q30 0 30 -4q0 -11 -32 -39q-36 -31 -76 -54q-29 -16 -74 -16l-33 2l-2 186v187q-2 0 -43 -27q-309 -195 -608 -282q-225 -66 -444 -66h-25q-154 6 -283 61q-199 88 -276 254q-31 63 -41 127q-2 18 -2 144q0 444 53 917l6 66h-30q-29 0 -31 2z" />
<glyph unicode="V" horiz-adv-x="1763" d="M41 1571q-4 12 51 54t90 54h7.5t14.5 1t19 1h35v-26q2 -8 3 -34t1 -38q16 -317 144 -612q43 -96 92 -180q164 -285 409 -484q133 -111 260 -176l19 -10l33 49q82 133 92 149q297 522 344 1129q0 14 1 41t1 33l2 28l-8 15q-14 31 -39 45q-27 18 -56 22q-14 0 -18 3t0 12 q8 23 35 30q9 4 77 5h24q44 0 46 -3q2 -4 2 -71.5t-4 -106.5q-14 -160 -32 -266q-88 -530 -363 -977q-18 -29 -98 -149q-18 -12 -23 -15q-18 -12 -24 -18q-53 -49 -103 -68q-14 -7 -21 -7h-1q-6 1 -35 17q-395 219 -635 598q-231 365 -270 783q-4 33 -11 145v25h-30 q-29 0 -31 2z" />
<glyph unicode="W" horiz-adv-x="2928" d="M41 1571q-4 12 51 54t90 54h7.5t14.5 1t19 1h35v-32q2 -10 3 -40t1 -42q18 -395 176 -766q162 -379 441 -668q18 -20 19 -24.5t-7 -16.5q-35 -43 -111 -82q-23 -10 -29 -9t-28 24q-6 8 -24.5 28.5t-24.5 26.5q-434 487 -539 1122q-31 176 -31 305q0 31 -2 41v21h-30 q-29 0 -31 2zM868 51q432 514 537 1186q4 27 2 49q-16 111 -21 236q0 53 5 59q12 20 60 55t77 43q10 2 11 -2t3 -45q8 -276 82 -540q131 -453 442 -807q68 -80 129 -133q6 -6 12.5 -13.5t11.5 -11.5t9 -8l4 -4l6 -6l-2 -9q-10 -18 -59 -53t-78 -45l-12 -2l-6 4 q-143 129 -273 301q-260 344 -360 762q-8 35 -10 37l-11 -33q-127 -545 -479 -981q-63 -80 -86 -88q-22 -6 -22 7q0 9 28 42zM2181 4q-3 3 -3 7q0 3 3 9q6 10 43 50q150 164 264 356q297 489 334 1079v12q0 34 -10 54q-27 55 -90 61q-14 0 -18.5 3t-0.5 12q4 18 33 30 q10 4 78 4t72 -2q1 -1 1 -32v-37q-1 -68 -3 -86q0 -4 -1 -14.5t-3.5 -23.5t-2.5 -22q-33 -410 -208 -792q-133 -291 -340 -539q-57 -68 -93 -104q-29 -29 -45 -29q-6 0 -10 4z" />
<glyph unicode="X" horiz-adv-x="2281" d="M41 1571q-4 12 51 54t90 54h15q14 2 26 2h33l455 -372q106 -88 225 -184.5t178.5 -144.5t61.5 -50l10 -8l395 309q395 313 406 323q32 28 32 58q0 18 -14 20q-12 2 -12 10q0 16 26 31l11 8h102q104 0 106 -2q3 -2 3 -6q0 -5 -7 -15q-12 -16 -28 -24q-2 0 -8.5 -1 t-10.5 -1q-27 0 -55 -14q-16 -6 -467 -363q-451 -350 -451 -354l402 -332h2l2 -2l2 -2l2 -2l2 -2h2l2 -2l2 -2l2 -2l2 -2h2v-2l2 -2l2 -2l3 -2h2l2 -2l2 -2l2 -2l2 -2l2 -2h2l2 -3l2 -2l2 -2l2 -2h2l2 -2l2 -2l2 -2l2 -2l2 -2h2l2 -2l3 -2l2 -2l2 -2l4 -2l481 -393h33 q31 0 33 -2q4 -10 -32 -40t-77 -53q-33 -18 -74 -18h-33l-477 391q-113 90 -236.5 191.5t-185.5 150.5l-59 49l-207 -159q-207 -160 -415.5 -325t-217.5 -173q-28 -29 -28 -53q0 -6 2 -11q4 -12 16 -12q2 0 6 -4q10 -10 -12 -29q-12 -12 -24.5 -14t-71.5 -2q-68 0 -70 4 q-8 8 6 23q23 23 498 393l489 385l-4 6q-4 4 -467 381l-461 377h-32q-31 0 -33 2z" />
<glyph unicode="Y" horiz-adv-x="1763" d="M41 1571q-4 12 51 54t90 54h7.5t14.5 1t19 1h33l344 -385l346 -385q4 0 565 584q43 47 52.5 60.5t11.5 33.5q2 37 -25 43q-31 4 2 33q12 12 24.5 14t72.5 2q70 0 71 -2q1 -1 1 -4q0 -5 -5 -16q-4 -8 -373.5 -391t-375.5 -385l-6 -4v-383v-383h30q27 -2 30 -4.5t-7 -14.5 q-35 -41 -111 -82l-22 -10l-70 -2q-68 0 -70 2q-4 14 50 53l14 11v360v360l-350 392l-349 391h-32q-31 0 -33 2z" />
<glyph unicode="Z" horiz-adv-x="1763" d="M41 2q0 2 4 10l746 768q745 768 751 776l12 13h-737q-739 0 -739 -4q-2 0 -2 -6q-2 -6 -2 -9q0 -18 -8 -24q-12 -4 -21 4q-4 4 -4 74v67l4 6l6 4h834q836 0 837 -2q0 -2 -4 -10l-745 -768q-745 -768 -752 -776l-12 -12h737q739 0 740 4q2 0 2 6q2 6 2 8q0 18 8 25 q12 4 20 -4q4 -4 4 -74v-68l-4 -6l-6 -4h-833q-836 0 -838 2z" />
<glyph unicode="a" horiz-adv-x="780" d="M27 211q0 86 8 135q23 102 119 199.5t307 228.5l41 27v76q0 78 -4 88q-8 33 -31 45l-8 4l-15 -8q-33 -14 -30 -5q0 2 2 7q14 23 76 66q64 44 92 50q6 1 11 1q21 0 38 -17q12 -12 20 -31q4 -16 4 -461l2 -450l5 -14q14 -39 36 -43q8 0 17 6q31 14 31 6q0 -25 -93 -84 q-64 -44 -95 -44q-4 0 -7 1q-31 8 -45 51q-4 12 -6 92q0 78 -2 78q-12 -6 -25 -14q-182 -111 -301 -123q-12 -1 -23 -1q-90 0 -120 87q-4 14 -4 47zM182 315q0 -31 4 -43q27 -82 117 -82q45 0 105 23q49 20 84 39l10 6v250q0 250 -2 250q-25 -14 -51 -33q-131 -80 -173 -119 q-68 -70 -86 -157q-8 -45 -8 -134z" />
<glyph unicode="b" horiz-adv-x="919" d="M46 1517q-1 1 -1 2q0 7 18 25q29 29 76 58q29 20 45 32q43 31 74 43q12 4 16.5 4t4.5 -389q0 -387 2 -387q98 47 217 107q225 106 227 106q8 2 10 0q20 -20 76 -213q78 -270 78 -540q0 -63 -4 -80q-14 -53 -70 -113q-113 -109 -237 -147q-76 -26 -150 -26q-66 0 -131 21 q-137 49 -168 156l-4 17l-2 657q0 651 -4 663q-4 10 -10 13q-12 6 -31 0q-27 -14 -32 -9zM281 301l4 -16q27 -104 161 -152q68 -22 132 -22q58 0 114 18l17 4l8 19q16 33 16 94v14q0 350 -129 692q-4 10 -10 25.5t-6 17.5l-2 9l-154 -74l-151 -76v-276v-277z" />
<glyph unicode="c" horiz-adv-x="686" d="M31 508q0 158 14 244q18 113 70 188q25 37 73 76q78 63 146 88q29 10 47 14q4 0 14.5 1t12.5 1h10l114 -108q27 -27 56.5 -54.5t46.5 -44.5l16 -14q6 -6 4 -12q-8 -18 -67.5 -60.5t-79.5 -42.5q-4 0 -121 113l-119 111h-10h-8l-8 -19q-41 -86 -54 -246q-4 -35 -4 -131 t4 -129q18 -219 88 -305q45 -57 119 -63l13 -2l22 34q35 55 74 93q63 61 123 88q30 14 30 5t-28 -36q-27 -20 -60 -76q-37 -55 -57 -78q-35 -41 -97.5 -84t-103.5 -53q-24 -6 -46.5 -6t-45.5 6q-150 39 -180 311q-8 57 -8 191z" />
<glyph unicode="d" horiz-adv-x="919" d="M31 750v75l4 19q29 96 139 182q61 43 100 61q43 23 84 31q14 2 35 -6q45 -18 117 -33q57 -4 89 -5q11 0 19 1l23 2v215q0 215 -4 224q-2 8 -12 12l-11 4l-16 -6q-29 -14 -33 -8q-6 18 99 88q4 2 15 10t15 10q51 41 86 53h8l5 2q4 -4 4 -276l2 -275l20 15q37 27 64 31 q8 2 8 -5q-4 -10 -23 -26q-33 -33 -65 -51l-6 -4v-463l2 -461l4 -14q10 -37 35 -43q2 -2 18 6q8 4 15.5 6t11.5 2t4 -2q0 -10 -21 -29q-59 -55 -116 -82q-29 -16 -49 -16q-14 0 -23 8q-29 20 -35 68l-2 20l-18 -12q-88 -57 -154 -72q-27 -6 -59 -6q-25 0 -54 4 q-152 29 -233 197q-92 188 -92 549zM186 854q0 -414 123 -600q72 -113 197 -137q16 -2 54 -2t44 2q20 8 33 76q4 14 4 413v398l-16 -7q-74 -27 -142 -32q-26 -4 -53 -4q-34 0 -70 6q-71 14 -118 34l-15 5l-6 2q-14 0 -31 -66q-4 -16 -4 -88z" />
<glyph unicode="e" horiz-adv-x="1067" d="M31 555q18 209 149 352q59 63 142 117q125 82 231 94q4 0 15.5 1t13.5 1h14l127 -63q123 -66 129 -66q14 12 33 29q68 66 116 88q37 16 37 6q0 -2 -2 -6q-39 -39 -403 -393q-63 -61 -114.5 -111.5t-91.5 -89.5t-69.5 -67.5t-51 -50t-36 -35t-21.5 -21.5t-11 -12l-2 -4 q0 -6 14 -35q66 -131 170 -164q39 -12 76 -12q14 0 28 2l13 2l51 53q63 63 112 102q81 65 107 65q5 0 8 -3q2 -1 2 -3q0 -10 -47 -48q-27 -20 -82 -80q-70 -66 -88 -82q-129 -104 -217 -117q-22 -4 -43 -4q-74 0 -135 45q-143 100 -172 373q-4 37 -4 79q0 28 2 58zM197 463 q13 -86 20 -86q4 1 254 243q252 244 252 246l-18 11q-16 8 -54 27.5t-67 33.5l-138 70h-12q-41 0 -96 -19q-16 -4 -27 -18q-49 -51 -80 -127q-47 -109 -48 -238q1 -69 14 -143z" />
<glyph unicode="f" horiz-adv-x="780" d="M46 1517q-1 1 -1 2q0 7 18 25q27 23 78 60q39 27 45 32q43 29 72 41q12 3 40 3t73 -3q71 -4 121 -4t79 4q80 10 117 33q41 25 53 27h9q3 -1 3 -4q0 -8 -30 -35q-86 -74 -182 -107q-81 -31 -192 -31q-15 0 -32 1l-38 2v-207v-207h16q10 0 80 -4q57 -2 103 -2q104 0 151 12 q37 10 61 25q40 25 55 25q7 0 7 -4q0 -5 -23 -27q-20 -20 -65 -52q-94 -61 -183 -80q-53 -12 -141 -12h-61v-432q0 -432 4 -442q8 -33 30 -45l9 -5l14 9q33 14 31 4q0 -2 -2 -6q-10 -18 -56.5 -53t-81.5 -52q-25 -13 -44 -13q-22 0 -36 17q-12 12 -20 31q-4 16 -4 737 q0 723 -4 736l-10 10q-12 6 -31 0q-27 -14 -32 -9z" />
<glyph unicode="g" horiz-adv-x="1083" d="M31 -559q-1 1 -1 3q0 11 40 44q45 37 94 59q119 55 184 105q195 145 324 399l12 27l-8 8q-72 63 -209 137q-158 88 -229 158q-96 90 -111 190q-4 25 -4 51t4 54q27 199 250 344q106 74 211 96l28 4l76 -2q53 -2 96 -2q100 0 146 10q39 12 57 23q37 23 53 27h4q6 0 7 -5 q0 -27 -115 -94q-49 -31 -111 -53q-6 0 15 -16q94 -96 114 -230q2 -20 3 -86q-2 -92 -13 -151q-25 -172 -96 -338l-10 -21l14 -12q84 -84 100 -182q6 -28 6 -56q0 -23 -4 -45q-12 -106 -71 -194q-66 -100 -199 -182q-119 -72 -227 -72q-139 0 -281 45l-26 8l-27 -12 q-61 -31 -86 -39q-8 -2 -10 0zM279 727q0 -47 14 -90q27 -80 100.5 -149.5t214.5 -147.5q66 -35 111 -64l33 -20q10 10 22 86q29 119 31 246q0 63 -2 84q-18 113 -90 202q-87 103 -224 130q-20 4 -24 4q-27 0 -78 -23q-10 -4 -20 -16q-88 -100 -88 -242zM332 -401l-1 -1 q0 -9 105 -30l17 -2q86 -16 146 -16q29 0 52 4q33 6 37 8q20 4 29 14q68 72 86 209q3 19 3 40q0 27 -5 56q-9 45 -27 80q-8 23 -18 35l-11 14l-12 -18q-137 -203 -368 -371z" />
<glyph unicode="h" horiz-adv-x="919" d="M46 1517q-1 1 -1 2q0 7 18 25q29 29 76 58q29 20 45 32q43 31 74 43q12 4 16.5 4t4.5 -385v-383q4 0 143 93q29 18 71 44.5t63.5 41t27.5 16.5l22 12l29 -2q111 0 190 -76q45 -49 60 -100l6 -16l-2 -140q0 -340 -33 -495q-27 -135 -86 -195q-33 -33 -79 -62.5t-64 -31.5 q-8 0 -8.5 4t18.5 23q25 27 37 61q33 80 45 223q14 135 14 369l2 137l-6 17q-35 129 -194 165q-20 4 -35 5l-13 2l-104 -68l-104 -68v-352q0 -354 2 -362q8 -33 32 -47l9 -5l14 9q29 10 31 6q1 -1 1 -2q0 -12 -67 -66q-86 -58 -122 -58q-9 0 -15 3q-29 14 -39 53 q-2 8 -2 727q0 721 -2 729q-4 23 -23 23q-4 2 -20 -4q-27 -14 -32 -9z" />
<glyph unicode="i" horiz-adv-x="430" d="M96 1010q31 25 45 32q39 27 45 33q49 33 72 41q12 4 16.5 4t4.5 -481q0 -473 4 -489q12 -29 30 -39l9 -5l14 9q33 13 33 3v-1q0 -2 -2 -4q-10 -16 -58.5 -52t-83.5 -53q-28 -14 -45 -14q-6 0 -10 2q-23 4 -35 33q-10 16 -11 67t-1 404q0 442 -2 446q-2 8 -9.5 15.5 t-13.5 7.5q-4 2 -20 -4q-31 -15 -31 -5q0 13 49 50z" />
<glyph unicode="j" horiz-adv-x="436" d="M-12 -557q2 12 41 45q55 43 159 96l52 27l4 10q2 4 4 11.5t2 11.5q2 10 2 655t-4 653q-8 14 -21 19q-4 0 -20 -6q-4 -2 -12.5 -6.5t-10.5 -4.5q-8 0 -8 4q0 23 100 89q20 14 31 20q47 39 86 51h6l4 2q4 -4 5 -688v-686l-7 -16q-20 -61 -122 -136q-68 -47 -144 -83 q-16 -8 -33.5 -17.5t-27.5 -15.5l-13 -6q-35 -23 -57 -31q-6 -2 -10 -2q-6 0 -6 4z" />
<glyph unicode="k" horiz-adv-x="1060" d="M47 1575q-1 1 -1 3q0 8 24 28q28 26 75 57q25 18 35 25q37 27 74 45q12 4 18 4h7v-578q0 -578 2 -577.5t81 61.5q66 57 101 102q55 68 82 146q16 47 18 96q2 31 8 37q14 20 69.5 58t72.5 38q6 0 6 -2q2 -3 2 -13q0 -20 -8 -67q-20 -102 -95 -196q-63 -86 -186 -189 l-26 -22q0 -12 135 -203q145 -207 282 -287q94 -55 197 -55q12 0 12 -7q0 -9 -24 -31q-28 -24 -60 -40q-18 -7 -45 -7q-11 0 -24 1q-213 20 -412 287q-49 66 -119 170l-57 84q-4 2 -6 0l-6 -2v-187q0 -188 4 -198q8 -33 30 -45l9 -5l14 9q33 14 31 4q0 -2 -2 -6 q-10 -18 -56.5 -53t-81.5 -52q-25 -13 -44 -13q-22 0 -36 17q-14 14 -20 37q-4 10 -4 758q0 752 -2 756q-4 20 -21 24q-10 0 -22 -6q-29 -12 -31 -6z" />
<glyph unicode="l" horiz-adv-x="430" d="M96 1571q31 25 45 33q39 27 45 32q49 33 72 41q12 4 16.5 4t4.5 -761q0 -754 4 -770q12 -29 30 -39l9 -5l14 9q33 13 33 3v-1q0 -2 -2 -4q-10 -16 -58.5 -52t-83.5 -53q-28 -14 -45 -14q-6 0 -10 2q-23 4 -35 33q-10 16 -11 96t-1 655q0 723 -2 727q-2 8 -9.5 15.5 t-13.5 7.5q-4 2 -20 -4q-31 -15 -31 -5q0 13 49 50z" />
<glyph unicode="m" horiz-adv-x="1294" d="M46 959q0 7 20 26q20 20 75 57q39 27 45 33q49 33 72 41q6 3 10 3q5 0 6 -5q2 -8 5 -94v-98l112 82q131 98 156 108q17 7 35 7l43 -11q84 -41 98 -170q0 -14 2 -16q0 -2 29.5 19.5t81.5 59.5q129 98 159 111q12 6 31 6q49 0 87 -42t52 -113l4 -21l2 -389l3 -387l4 -14 q14 -39 36 -43q6 0 17 6q31 14 31 6q0 -25 -93 -84q-64 -44 -95 -44q-4 0 -7 1q-31 8 -45 51l-4 14l-2 387l-2 390l-4 20q-23 109 -82 137q-31 12 -33 11q-4 0 -86 -64l-84 -61v-359l2 -358l4 -12q12 -31 29 -39l8 -5l14 9q35 14 31 2q0 -2 -4 -8q-10 -16 -52 -48t-79 -51 q-30 -15 -50 -15q-17 0 -28 11q-18 14 -25 37l-4 12l-2 387q-2 391 -4 406q-27 127 -104 153l-12 5l-84 -64l-86 -63v-357q0 -356 4 -366q8 -33 30 -45l9 -5l14 9q33 14 31 4q0 -2 -2 -6q-10 -18 -56.5 -53t-81.5 -52q-25 -13 -44 -13q-22 0 -36 17q-12 12 -20 31 q-4 16 -4 457q0 442 -4 454l-10 11q-12 6 -31 0q-32 -15 -32 -6z" />
<glyph unicode="n" horiz-adv-x="874" d="M96 1010q31 25 45 32q39 27 45 33q49 33 72 41q2 0 4 2q3 1 5 1q7 0 9 -9q0 -10 3 -66v-26q0 -100 2 -100q53 39 118 83q133 94 164 109q16 8 35 8q47 0 84 -37q51 -49 68 -139q2 -16 2 -391q0 -301 1 -348t11 -66q10 -23 24 -28q8 -2 23 6q8 4 15.5 6t11.5 2t4 -2 q0 -18 -86 -80q-68 -47 -101 -47q-7 0 -12 2q-25 10 -35 35q-10 18 -11 65t-1 348q0 387 -10 428q-31 111 -113 132l-10 2l-92 -66l-92 -63v-355q0 -281 1 -324.5t9 -60.5q10 -18 24 -26l9 -5l14 9q35 14 33 2q0 -2 -2 -4q-10 -16 -58.5 -52t-83.5 -53q-28 -14 -45 -14 q-6 0 -10 2q-23 4 -35 33q-10 16 -11 67t-1 404q0 442 -2 446q-2 8 -9.5 15.5t-13.5 7.5q-4 2 -20 -4q-31 -15 -31 -5q0 13 49 50z" />
<glyph unicode="o" horiz-adv-x="897" d="M33 410q-4 49 -4 98t4 98q18 154 71 256q51 104 160 185q121 92 221 104q18 2 34 2q25 0 46 -4q90 -12 158 -84q82 -82 119 -229q25 -96 25 -219q0 -128 -25 -226q-29 -117 -86.5 -196.5t-159.5 -149.5q-109 -72 -211 -78h-11q-164 0 -261 168q-61 115 -80 275zM188 516 q29 -238 138 -352q66 -66 157 -82q30 -4 53 -4q42 0 60 14q0 2 3 6t7 10.5t8 10.5q72 104 95 293q2 23 2 96q0 123 -25 221q-33 135 -103.5 214t-166.5 93q-22 4 -45 4q-12 0 -24 -1q-36 -3 -46 -11q0 -2 -3 -6t-7 -10t-8 -11q-72 -104 -95 -292q-4 -48 -4 -96.5t4 -96.5z " />
<glyph unicode="p" horiz-adv-x="919" d="M46 956q-1 1 -1 2q0 7 18 25q29 29 76 57q29 20 45 33q43 31 74 43q14 6 16 -2t5 -108l2 -113l88 76q57 53 104 90q66 53 98 59l11 2l24 -14q178 -104 250 -299q35 -92 35 -204q0 -53 -8 -111q-23 -193 -113 -302q-41 -49 -110.5 -100t-129.5 -72q-47 -16 -100 -16 q-72 0 -127 25q-20 8 -22 10q-2 0 -2 -215t2 -225q8 -33 32 -48l9 -4l14 9q29 10 31 6q1 -1 1 -2q0 -12 -67 -66q-86 -58 -122 -58q-9 0 -15 3q-29 14 -39 53q-2 8 -2 727q0 721 -2 729q-4 23 -23 23q-4 2 -20 -4q-27 -14 -32 -9zM279 315l10 -20q41 -82 113.5 -130 t164.5 -52q51 0 66 6q6 2 25.5 38t29.5 66q47 125 47 281q0 193 -112 342q-49 66 -115 115q-4 2 -12.5 8t-14.5 10t-10 6l-14 10l-90 -77l-88 -76v-264v-263z" />
<glyph unicode="q" horiz-adv-x="991" d="M31 508q0 68 2 90q25 201 129 324q43 51 112.5 101t128.5 73q33 14 82 22q14 2 31 2q50 0 121 -14q72 -14 108 -16h9q40 0 73 16q29 12 33 12l8 2v-758l2 -757l4 -15q14 -39 37 -43q6 0 17 7q31 14 30 6q0 -25 -92 -84q-64 -44 -95 -44q-4 0 -7 1q-31 8 -45 51l-4 14 l-2 338v340l-25 -20q-147 -123 -262 -150q-25 -6 -53 -6q-23 0 -47 4q-106 18 -181 113.5t-102 244.5q-12 61 -12 146zM188 524q35 -281 197 -372q29 -16 51 -25q42 -14 86 -14h12q50 2 72 22q8 8 37 33q8 6 25.5 21.5t23.5 19.5l21 18v385q0 385 -2 385q-10 -4 -21 -6 q-39 -14 -92 -14q-35 2 -111 16q-10 2 -35.5 6.5t-33.5 6.5q-20 2 -39 2t-35 -2q-8 0 -25 -5l-18 -4l-14 -16q-78 -109 -99 -281q-4 -44 -4 -88t4 -88z" />
<glyph unicode="r" horiz-adv-x="1060" d="M46 956q-1 1 -1 2q0 7 18 25q27 23 78 59q39 27 45 33q49 33 72 41q2 0 4 2q3 2 6 2q7 0 8 -12q0 -10 3 -66v-28v-105l22 21q113 106 219 155q37 20 88 31q22 4 40 4t30 -4q24 -8 53 -39q29 -29 72 -98q35 -57 45 -70q49 -63 100 -69h15l24 12q45 23 45 12q0 -4 -2 -8 q-27 -39 -125 -94q-61 -34 -101 -34h-2q-40 1 -79 40q-29 29 -76 104q-45 72 -67 97q-37 37 -88 37q-22 0 -46 -7q-14 -4 -71 -59q-74 -68 -78 -72l-18 -16v-342q0 -344 4 -354q8 -33 30 -45l9 -5l14 9q33 14 31 4q0 -2 -2 -6q-10 -18 -56.5 -53t-81.5 -52q-25 -13 -44 -13 q-22 0 -36 17q-12 12 -20 31q-4 16 -4 457q0 442 -4 454l-10 11q-12 6 -31 0q-27 -14 -32 -9z" />
<glyph unicode="s" horiz-adv-x="919" d="M47 955q-1 0 -1 2q0 3 3 10q14 23 90 75q18 12 170 150q141 129 164 147q51 42 96 60q6 2 164 2q156 0 158 -2q4 -10 -32 -40t-77 -52q-25 -14 -41 -16.5t-133 -2.5h-133l-98 -90l-98 -88v-471q0 -473 2 -481q8 -33 32 -47l9 -5l14 9q29 10 31 6q1 -1 1 -2q0 -12 -67 -66 q-86 -58 -122 -58q-9 0 -15 3q-23 14 -37 47q-4 12 -4 455q0 444 -6 454q-8 16 -23 17q-4 0 -12 -4q-10 -6 -21 -11q-12 -2 -14 -1z" />
<glyph unicode="t" horiz-adv-x="1107" d="M31 1010q-1 1 -1 3q0 9 20 27q24 24 66 51t81 46q66 28 125 34q16 1 35 1q37 0 83 -5q68 -10 215 -55q145 -44 239 -44q15 0 28 1q57 4 112 33q39 25 43 16q1 -1 1 -3q0 -7 -18 -25q-24 -22 -65 -52q-109 -72 -208 -82q-18 -2 -38 -2q-89 0 -212 37l-45 13l-7 -5l-4 -4 q-4 -2 -8 -7t-8 -9q-113 -127 -135 -301q-2 -23 -2 -77t2 -85q25 -233 133 -336q29 -29 63 -45q43 -20 95 -20h28l27 26q102 98 172 129q37 14 26 -2q-6 -16 -43 -41q-16 -12 -51 -47q-80 -80 -143 -119q-68 -45 -123 -57q-20 -4 -40 -4q-67 0 -130 41q-35 23 -68 65 q-80 109 -102 304q-4 48 -4 91t4 81q31 205 178 352q57 53 86 74l11 8l-19 6q-18 6 -44 13t-40 9q-72 14 -127 15q-80 0 -135 -29q-47 -26 -53 -20z" />
<glyph unicode="u" horiz-adv-x="874" d="M96 1010q31 25 45 32q39 27 45 33q49 33 72 41q12 4 16.5 4t4.5 -348l2 -348l75 -156q76 -156 84 -155q12 0 19.5 6t40.5 45q45 53 67 76l29 28v340v338l-4 8q-4 8 -14 13l-9 4l-16 -6q-29 -14 -33 -9q-6 16 90 82q35 27 39 29q68 51 94 51l9 2v-477l2 -477l4 -14 q14 -39 37 -43q8 0 16 6q31 14 31 6q0 -18 -86 -80q-68 -47 -101 -47q-7 0 -12 2q-25 10 -35 35q-12 25 -12 98v57l-29 -28q-53 -53 -112 -92q-61 -41 -111 -58q-55 -10 -59 -8q-6 6 -84 162l-78 157v310q0 313 -2 317q-2 8 -9.5 15.5t-13.5 7.5q-4 2 -20 -4q-31 -15 -31 -5 q0 13 49 50z" />
<glyph unicode="v" horiz-adv-x="919" d="M46 956q-1 1 -1 2q0 7 18 25q29 29 76 57q29 20 45 33q43 31 74 43q2 0 4 2q14 4 14 -6q2 -4 3 -12v-8q6 -461 235 -869q18 -33 21 -33q2 -2 15 25t29.5 65.5t30.5 73.5q111 279 123 566v32l-8 9q-12 14 -35 4q-4 -2 -12 -6.5t-10 -4.5q-8 0 -9 4q0 23 101 89 q20 14 31 20q63 51 92 51l8 2v-28q0 -57 -8 -138q-37 -451 -287 -831q-29 -41 -74 -76q-68 -47 -88 -47q-10 0 -76 119q-170 299 -219 643q-10 66 -14 137q0 49 -14 62q-12 14 -33 4q-27 -14 -32 -9z" />
<glyph unicode="w" horiz-adv-x="1294" d="M46 959q0 7 20 26q20 20 75 57q39 27 45 33q49 33 72 41q12 4 16.5 4t4.5 -350l2 -348l71 -156l74 -153l10 20q4 6 29 51q16 33 45 78q23 37 51 62l8 8v305q0 307 -4 315q-8 14 -20 19q-4 0 -21 -6q-4 -2 -12 -6.5t-10 -4.5q-8 0 -8 4q0 23 100 89q20 14 31 20 q63 51 92 51l8 2v-348l2 -348l72 -156l73 -153l7 -2q6 0 24 22q53 72 86 107l27 26v338q0 340 -4 348t-13 13l-10 4l-16 -6q-29 -14 -33 -9q-6 18 98 88q4 2 15.5 10.5t15.5 10.5q66 53 94 53l8 2v-477l3 -477l4 -14q14 -39 36 -43q6 0 17 6q31 14 31 6q0 -25 -93 -84 q-64 -44 -95 -44q-4 0 -7 1q-31 8 -45 51q-4 10 -6 72v59l-31 -31q-121 -121 -227 -141q-37 -8 -39 0q-2 2 -60 125l-57 119q-6 -8 -10 -19q-27 -47 -49 -71q-31 -39 -89.5 -82t-105.5 -62q-37 -14 -67 -14l-9 2l-73 156l-74 157l-2 316q0 311 -4 323l-10 11q-12 6 -31 0 q-32 -15 -32 -6z" />
<glyph unicode="x" horiz-adv-x="1107" d="M-467 -555q-2 8 34 38t71 50q37 18 61 18q35 0 108 9q143 18 271 84q68 37 131 100q184 190 231 461q12 57 15 139q0 106 -17 199l-6 26l-135 193q-137 195 -139 196q-20 16 -39 19l-10 2l-23 -10q-41 -20 -41 -11q0 2 2 7q12 23 94 77q39 27 45 33q49 33 72 41 q12 4 14 4t90 -125l91 -125q4 6 10 13q39 59 123 123.5t162 91.5q37 12 83 20q26 4 55 4q66 0 144 -20q39 -8 82 -22.5t45 -18.5q2 -12 -48 -51t-85 -54q-14 -6 -55 9q-111 41 -238 41q-57 0 -88 -9l-16 -4l-13 -16q-55 -79 -55 -166q0 -17 2 -35q2 -37 21 -86 q10 -20 184 -270q176 -250 184 -258q20 -16 39 -19l12 -2l21 11q41 20 41 10q0 -2 -2 -6q-6 -10 -53 -50q-80 -59 -119 -69q-21 -6 -38 -6q-31 0 -52 20q-10 10 -103 144l-94 135l-8 -37q-39 -188 -145 -348q-20 -31 -37 -51q-168 -215 -441 -353q-152 -74 -309 -94 q-74 -8 -115 -8q-14 0 -14 6z" />
<glyph unicode="y" horiz-adv-x="919" d="M-482 -554q0 2 2 5q3 4 11 14q47 47 113 78q12 6 53 8q131 6 235 35q166 45 273 129q127 102 233 260l21 29l-4 6q-6 8 -25.5 36t-28.5 40q-217 326 -266 717q-10 92 -10 115q0 31 -14 45q-12 12 -33 2q-27 -14 -32 -9t17 27q29 29 76 57q29 20 45 33q43 31 74 43 q16 6 17 1t4 -48q10 -401 206 -758q66 -121 74 -121q6 12 12 27q123 272 154 592q8 68 8 123v20l-8 9q-12 14 -35 4q-4 -2 -12 -6.5t-10 -4.5q-8 0 -9 4q0 23 101 89q20 14 31 20q63 51 92 51l8 2v-30q0 -84 -10 -181q-53 -522 -332 -901q-193 -262 -498 -430 q-223 -123 -467 -137q-20 -2 -51 -2q-8 0 -11 1q-4 1 -4 6z" />
<glyph unicode="z" horiz-adv-x="1107" d="M29 -51q43 72 94 157q23 39 135.5 225.5t175.5 293.5l217 360l-33 6q-72 14 -151 17q-49 0 -127 4q-28 1 -53 1q-136 0 -195 -36q-16 -10 -30.5 -16.5t-21.5 -7.5t-9 1q-6 8 29.5 38t82.5 59q105 65 226 73q26 1 65 1t92 -1q74 -4 95 -4q63 0 182 -24q85 -16 136 -16 q13 0 24 1q33 2 69 21q47 25 47 12q0 -2 -2 -6q-18 -33 -121 -92q-57 -31 -114 -45q-43 -4 -70 -4q-18 0 -29 2q-2 0 -6 -5.5t-24.5 -37t-54 -89t-103.5 -173.5q-61 -100 -163.5 -270.5t-106.5 -178.5l-86 -141l10 4q43 20 84 26q59 14 166 14q30 0 63 -1q82 -4 101 -4 q61 0 180 -25q82 -15 132 -15q15 0 28 1q33 2 69 20q47 25 47 12q0 -2 -2 -6q-18 -33 -121 -92q-84 -47 -170 -47q-49 0 -129 14q-123 25 -178 25q-10 0 -112 4q-46 1 -78.5 1t-52.5 -1q-96 -6 -144 -35l-10 -5t-13.5 -6t-9.5 -5q-16 -7 -24 -7q-5 0 -6 3z" />
<glyph unicode="&#xad;" horiz-adv-x="913" d="M74 444q-6 10 0 25q14 29 50 61.5t73 47.5q23 10 49 11t254 3l268 2l14 4q23 8 52 27l32 16q14 4 21 0q2 -4 0 -10q-10 -23 -66 -56l-30 -20q-4 -4 -23 -16l-12 -7l-291 -2h-291l-4 -6l-4 -4l8 2q23 10 23 -6q0 -14 -35 -37q-41 -31 -72 -37q-12 -2 -16 2z" />
<glyph unicode="&#x2000;" horiz-adv-x="897" />
<glyph unicode="&#x2001;" horiz-adv-x="1794" />
<glyph unicode="&#x2002;" horiz-adv-x="897" />
<glyph unicode="&#x2003;" horiz-adv-x="1794" />
<glyph unicode="&#x2004;" horiz-adv-x="598" />
<glyph unicode="&#x2005;" horiz-adv-x="448" />
<glyph unicode="&#x2006;" horiz-adv-x="299" />
<glyph unicode="&#x2007;" horiz-adv-x="299" />
<glyph unicode="&#x2008;" horiz-adv-x="224" />
<glyph unicode="&#x2009;" horiz-adv-x="358" />
<glyph unicode="&#x200a;" horiz-adv-x="99" />
<glyph unicode="&#x2010;" horiz-adv-x="913" d="M74 444q-6 10 0 25q14 29 50 61.5t73 47.5q23 10 49 11t254 3l268 2l14 4q23 8 52 27l32 16q14 4 21 0q2 -4 0 -10q-10 -23 -66 -56l-30 -20q-4 -4 -23 -16l-12 -7l-291 -2h-291l-4 -6l-4 -4l8 2q23 10 23 -6q0 -14 -35 -37q-41 -31 -72 -37q-12 -2 -16 2z" />
<glyph unicode="&#x2011;" horiz-adv-x="913" d="M74 444q-6 10 0 25q14 29 50 61.5t73 47.5q23 10 49 11t254 3l268 2l14 4q23 8 52 27l32 16q14 4 21 0q2 -4 0 -10q-10 -23 -66 -56l-30 -20q-4 -4 -23 -16l-12 -7l-291 -2h-291l-4 -6l-4 -4l8 2q23 10 23 -6q0 -14 -35 -37q-41 -31 -72 -37q-12 -2 -16 2z" />
<glyph unicode="&#x2012;" horiz-adv-x="913" d="M74 444q-6 10 0 25q14 29 50 61.5t73 47.5q23 10 49 11t254 3l268 2l14 4q23 8 52 27l32 16q14 4 21 0q2 -4 0 -10q-10 -23 -66 -56l-30 -20q-4 -4 -23 -16l-12 -7l-291 -2h-291l-4 -6l-4 -4l8 2q23 10 23 -6q0 -14 -35 -37q-41 -31 -72 -37q-12 -2 -16 2z" />
<glyph unicode="&#x2013;" horiz-adv-x="1120" d="M75 444q-8 10 0 25q17 29 62.5 61.5t91.5 47.5q29 10 61.5 11t318.5 3l336 2l17 4q29 8 65 27l40 16q18 4 27 0q2 -4 0 -10q-13 -23 -83 -56l-38 -20q-5 -4 -28 -16l-15 -7l-365 -2h-365l-5 -6l-5 -4l10 2q29 10 29 -6q0 -14 -44 -37q-51 -31 -90 -37q-15 -2 -20 2z" />
<glyph unicode="&#x2014;" horiz-adv-x="2144" d="M79 444q-16 10 0 25q35 29 125 61.5t183 47.5q58 10 123 11t636 3l672 2l35 4q58 8 131 27l80 16q35 4 52 0q6 -4 0 -10q-25 -23 -165 -56l-75 -20q-10 -4 -58 -16l-30 -7l-729 -2h-730l-10 -6l-10 -4l20 2q58 10 58 -6q0 -14 -88 -37q-103 -31 -180 -37q-30 -2 -40 2z " />
<glyph unicode="&#x2018;" horiz-adv-x="407" d="M12 1360v72v69l4 6l7 4h83h84l7 -4l4 -6v-65v-66l67 -125q47 -82 72 -131q6 -12 -2 -20q-4 -4 -64 -4q-57 0 -61 4t-102 135z" />
<glyph unicode="&#x2019;" horiz-adv-x="407" d="M12 1106q0 4 99 135l96 129v66v65l4 6l6 4h84h84l6 -4l4 -6v-69v-72l-6 -6q-6 -6 -121.5 -129t-124.5 -131q-4 -4 -63 -4h-57l-7 4q-4 8 -4 12z" />
<glyph unicode="&#x202f;" horiz-adv-x="358" />
<glyph unicode="&#x205f;" horiz-adv-x="448" />
<glyph unicode="&#xe000;" horiz-adv-x="1126" d="M0 0v1126h1126v-1126h-1126z" />
</font>
</defs>
</svg>
